PathFileType	4	(X/Y/Z)	C:\Users\wzy\Desktop\s001_20220513_walk_1_markers.trc
DataRate	CameraRate	NumFrames	NumMarkers	Units	OrigDataRate	OrigDataStartFrame	OrigNumFrames
250.000000	250.000000	4	99	mm	250.000000	0	1078
Frame#	Time	QTMMod_head_top			QTMMod_head_l_ant			QTMMod_head_r_ant			QTMMod_head_r_post			QTMMod_head_l_post			QTMMod_trunk_l_acro			QTMMod_trunk_r_acro			QTMMod_trunk_manu			QTMMod_trunk_xyph			QTMMod_trunk_abdl			QTMMod_trunk_c7			QTMMod_trunk_t8			QTMMod_trunk_t12			QTMMod_l_sho_ant			QTMMod_l_sho_post			QTMMod_l_bicep			QTMMod_l_tricep			QTMMod_l_elb_lat			QTMMod_l_elb_med			QTMMod_l_farm_ant			QTMMod_l_farm_post			QTMMod_l_wri_lat			QTMMod_l_wri_med			QTMMod_l_hand			QTMMod_l_thmb			QTMMod_r_sho_ant			QTMMod_r_sho_post			QTMMod_r_bicep			QTMMod_r_tricep			QTMMod_r_elb_lat			QTMMod_r_elb_med			QTMMod_r_farm_ant			QTMMod_r_farm_post			QTMMod_r_wri_lat			QTMMod_r_wri_med			QTMMod_r_hand			QTMMod_r_thmb			QTMMod_pelvis_l_asis			QTMMod_pelvis_r_asis			QTMMod_pelvis_r			QTMMod_pelvis_r_ilcr			QTMMod_pelvis_r_psis			QTMMod_pelvis_sac			QTMMod_pelvis_l_psis			QTMMod_pelvis_l_ilcr			QTMMod_pelvis_l			QTMMod_l_hip_grtr			QTMMod_l_thigh_antprox			QTMMod_l_thigh_postprox			QTMMod_l_thigh_postdist			QTMMod_l_thigh_antdist			QTMMod_l_thigh_ant			QTMMod_l_thigh_med			QTMMod_l_thigh_pos			QTMMod_l_knee_lat			QTMMod_l_knee_med			QTMMod_l_shank_antprox			QTMMod_l_shank_postprox			QTMMod_l_shank_postdist			QTMMod_l_shank_antdist			QTMMod_l_shank_med			QTMMod_l_ank_lat			QTMMod_l_ank_med			QTMMod_l_foot_heel			QTMMod_l_foot_lat			QTMMod_l_foot_m5			QTMMod_l_foot_m2			QTMMod_l_foot_toe			QTMMod_l_foot_m1			QTMMod_l_foot_med			QTMMod_l_foot_navi			QTMMod_r_hip_grtr			QTMMod_r_thigh_antprox			QTMMod_r_thigh_postprox			QTMMod_r_thigh_postdist			QTMMod_r_thigh_antdist			QTMMod_r_thigh_ant			QTMMod_r_thigh_med			QTMMod_r_thigh_pos			QTMMod_r_knee_lat			QTMMod_r_knee_med			QTMMod_r_shank_antprox			QTMMod_r_shank_postprox			QTMMod_r_shank_postdist			QTMMod_r_shank_antdist			QTMMod_r_shank_med			QTMMod_r_ank_lat			QTMMod_r_ank_med			QTMMod_r_foot_heel			QTMMod_r_foot_lat			QTMMod_r_foot_m5			QTMMod_r_foot_m2			QTMMod_r_foot_toe			QTMMod_r_foot_m1			QTMMod_r_foot_med			QTMMod_r_foot_navi			QTMMod_head_l			QTMMod_head_r			QTMMod_head_front			
		X1	Y1	Z1	X2	Y2	Z2	X3	Y3	Z3	X4	Y4	Z4	X5	Y5	Z5	X6	Y6	Z6	X7	Y7	Z7	X8	Y8	Z8	X9	Y9	Z9	X10	Y10	Z10	X11	Y11	Z11	X12	Y12	Z12	X13	Y13	Z13	X14	Y14	Z14	X15	Y15	Z15	X16	Y16	Z16	X17	Y17	Z17	X18	Y18	Z18	X19	Y19	Z19	X20	Y20	Z20	X21	Y21	Z21	X22	Y22	Z22	X23	Y23	Z23	X24	Y24	Z24	X25	Y25	Z25	X26	Y26	Z26	X27	Y27	Z27	X28	Y28	Z28	X29	Y29	Z29	X30	Y30	Z30	X31	Y31	Z31	X32	Y32	Z32	X33	Y33	Z33	X34	Y34	Z34	X35	Y35	Z35	X36	Y36	Z36	X37	Y37	Z37	X38	Y38	Z38	X39	Y39	Z39	X40	Y40	Z40	X41	Y41	Z41	X42	Y42	Z42	X43	Y43	Z43	X44	Y44	Z44	X45	Y45	Z45	X46	Y46	Z46	X47	Y47	Z47	X48	Y48	Z48	X49	Y49	Z49	X50	Y50	Z50	X51	Y51	Z51	X52	Y52	Z52	X53	Y53	Z53	X54	Y54	Z54	X55	Y55	Z55	X56	Y56	Z56	X57	Y57	Z57	X58	Y58	Z58	X59	Y59	Z59	X60	Y60	Z60	X61	Y61	Z61	X62	Y62	Z62	X63	Y63	Z63	X64	Y64	Z64	X65	Y65	Z65	X66	Y66	Z66	X67	Y67	Z67	X68	Y68	Z68	X69	Y69	Z69	X70	Y70	Z70	X71	Y71	Z71	X72	Y72	Z72	X73	Y73	Z73	X74	Y74	Z74	X75	Y75	Z75	X76	Y76	Z76	X77	Y77	Z77	X78	Y78	Z78	X79	Y79	Z79	X80	Y80	Z80	X81	Y81	Z81	X82	Y82	Z82	X83	Y83	Z83	X84	Y84	Z84	X85	Y85	Z85	X86	Y86	Z86	X87	Y87	Z87	X88	Y88	Z88	X89	Y89	Z89	X90	Y90	Z90	X91	Y91	Z91	X92	Y92	Z92	X93	Y93	Z93	X94	Y94	Z94	X95	Y95	Z95	X96	Y96	Z96	X97	Y97	Z97	X98	Y98	Z98	X99	Y99	Z99	

1	0	-1846.351318359375	1684.35205078125	-221.9259338378905	-1796.872436523438	1583.826538085938	-306.7804565429686	-1782.976684570312	1596.095825195312	-140.820831298828	-1879.233154296875	1579.915283203125	-141.5980682373046	-1908.220336914062	1564.239135742187	-291.4928894042968	-1853.882446289062	1405.322387695312	-374.2631225585936	-1854.336547851562	1393.091918945312	-57.69355392456043	-1802.44873046875	1357.7470703125	-218.6203460693358	-1742.358520507812	1141.90625	-216.1501617431639	-1710.905639648438	1003.45947265625	-207.1442260742186	-1913.065673828125	1433.892944335937	-214.9670104980468	-1975.22265625	1226.218627929687	-220.8221588134764	-1962.538940429688	1131.196899414062	-213.5505218505858	-1814.32861328125	1348.783325195312	-368.9648437499999	-1927.369140625	1377.903564453125	-374.8321838378905	-1848.500122070312	1195.361450195312	-423.9206237792968	-1943.226440429688	1213.07080078125	-396.3258972167968	-1903.860595703125	1088.394775390625	-478.0020446777343	-1932.46533203125	1068.47900390625	-383.189971923828	-1905.392211914062	968.2095947265624	-421.8955993652343	-1927.70166015625	990.8619995117186	-498.628448486328	-1895.383422851562	838.9085083007811	-475.4997558593749	-1943.14306640625	858.2445068359374	-523.1554565429686	-1935.289184570312	795.9264526367186	-532.4904174804686	-1898.755249023438	788.9696655273436	-477.8597106933593	-1802.013916015625	1343.698608398438	-74.68926239013661	-1926.301391601562	1354.089233398437	-54.12603378295886	-1786.584228515625	1202.827758789062	-19.26841545104969	-1888.640014648438	1179.823974609375	-5.374464511871222	-1786.209106445312	1080.771240234375	54.87581634521495	-1824.975219726562	1052.707763671875	-32.92912673950184	-1749.251098632812	1010.609130859375	-15.75650310516347	-1775.179565429688	1005.250122070312	64.7032928466798	-1651.163696289062	891.5714721679686	9.610164642334086	-1691.352905273438	860.1205444335936	54.78887939453136	-1633.636962890625	830.2514648437499	57.91596603393565	-1608.85009765625	853.9002685546874	15.89430618286143	-1762.18115234375	997.0712280273436	-322.0027465820311	-1765.779418945312	993.2479858398436	-87.74804687499989	-1871.089111328125	1017.276916503906	-41.01737976074207	-1873.447021484375	1039.06787109375	-42.10354995727528	-1975.407104492188	1032.393798828125	-159.9037170410155	-1974.0380859375	1027.248901367187	-213.7024688720702	-1966.6201171875	1029.751708984375	-262.8356323242186	-1844.468872070312	1049.824951171875	-377.373565673828	-1832.269287109375	1001.071350097656	-381.6912231445311	-1842.764770507812	960.4661254882811	-402.0909423828124	-1671.748291015625	701.4395141601561	-389.1139526367186	-1733.802490234375	664.8339233398436	-385.626251220703	-1684.299072265625	581.6875610351561	-367.5465087890624	-1627.767211914062	620.3283081054686	-363.7529907226561	-1585.605102539062	617.2014770507811	-300.353790283203	-1654.754760742188	667.7955322265624	-232.2800903320311	-1768.5087890625	600.1729736328124	-310.5527954101561	-1621.231323242188	538.4753417968749	-351.7393798828124	-1618.401489257812	535.1484374999999	-241.5973663330077	-1685.390380859375	395.5686645507811	-364.5253295898436	-1743.598388671875	435.1919555664061	-363.9971923828124	-1783.651611328125	367.581085205078	-352.210968017578	-1719.642578125	332.4334716796874	-360.5053710937499	-1690.275512695312	357.6386718749999	-248.9008178710936	-1821.2763671875	159.231964111328	-327.351104736328	-1790.046997070312	159.3278503417968	-243.8108978271483	-1872.452514648438	152.2521514892577	-273.9921264648436	-1790.0986328125	100.4203872680663	-339.2152099609374	-1732.617797851562	67.26073455810537	-354.7854003906249	-1682.376953125	70.41063690185537	-303.8274536132811	-1645.6787109375	55.10200500488271	-329.0971374511718	-1707.560791015625	71.92078399658193	-261.5766296386718	-1778.33837890625	85.7509307861327	-249.5358428955077	-1746.953369140625	141.1366271972655	-300.4715576171874	-1833.934692382812	971.2075805664061	-27.08719825744618	-1788.628051757812	663.4820556640624	-68.31383514404286	-1862.90234375	671.2713012695311	-48.79322433471668	-1867.716674804688	575.5346069335936	-74.89514160156239	-1805.14208984375	568.2902221679686	-95.70909118652332	-1790.628784179688	541.5972290039061	-170.0224456787108	-1790.337158203125	640.7941894531249	-209.9995117187499	-1934.347290039062	642.2870483398436	-134.9792327880858	-1843.694580078125	493.9181823730468	-121.0689239501952	-1847.959594726562	493.1346740722655	-216.6699066162108	-1849.89990234375	368.9922485351561	-113.9733123779296	-1924.141235351562	382.8890686035155	-97.50180816650379	-1947.28173828125	308.5587158203124	-101.8993606567382	-1867.287719726562	294.5914916992186	-118.9742431640624	-1870.027465820312	338.7459106445311	-219.2253570556639	-1932.475219726562	85.92516326904286	-150.2401885986327	-1921.287109375	100.725128173828	-236.6868286132811	-1991.953857421875	60.32734680175769	-186.2803649902343	-1865.29150390625	53.43620300292957	-150.1131591796874	-1809.813842773438	36.85935592651356	-139.7752380371093	-1780.850708007812	54.38766479492177	-215.4290924072264	-1732.236938476562	49.37757873535146	-217.8276824951171	-1792.452026367188	26.05482482910145	-253.2675933837889	-1874.972778320312	50.42233276367176	-245.1203765869139	-1888.77490234375	92.02414703369129	-204.9638061523436	-1852.54638671875	1574.032836914062	-299.1366882324218	-1831.10498046875	1588.005493164062	-141.2094573974608	-1789.924560546875	1589.961181640625	-223.8006591796874	
2	0.004	-1841.908569335938	1683.877685546875	-222.3029479980468	-1792.696044921875	1583.360595703125	-306.9917907714843	-1779.302734375	1596.338623046875	-140.9176330566405	-1874.571899414062	1579.66552734375	-141.7913665771483	-1904.028442382812	1563.6904296875	-291.5343017578124	-1849.616088867188	1405.067626953125	-374.1244201660155	-1850.325561523438	1392.8115234375	-57.64521408081043	-1798.181274414062	1357.462036132812	-218.4683685302733	-1738.39501953125	1141.598754882812	-215.879913330078	-1706.994506835938	1003.267517089844	-206.7782745361327	-1908.813720703125	1433.637939453125	-214.8504180908202	-1971.204467773438	1226.025634765625	-220.9315795898436	-1958.343505859375	1130.899169921875	-213.761260986328	-1809.559448242188	1348.445678710938	-368.9130554199218	-1921.823364257812	1376.2861328125	-373.1434326171874	-1845.276611328125	1195.933837890625	-423.869659423828	-1939.517822265625	1213.18505859375	-396.1476745605468	-1900.764770507812	1088.295654296875	-478.0733337402343	-1929.296997070312	1068.301147460937	-383.1827392578124	-1902.742919921875	968.2159423828124	-422.0154724121093	-1924.940673828125	990.8178100585936	-498.6669616699218	-1892.760864257812	839.0430908203124	-475.6351318359374	-1940.786254882812	858.2238769531249	-523.0795898437499	-1933.170288085938	796.2248535156249	-532.6286621093749	-1895.824829101562	788.9091186523436	-478.2144165039061	-1798.021362304688	1343.441772460938	-74.51580047607411	-1922.224731445312	1353.767822265625	-54.06342697143543	-1782.524169921875	1202.614868164062	-19.0833339691161	-1883.9677734375	1179.456665039062	-4.971961975097541	-1780.869750976562	1080.775146484375	54.70674896240245	-1820.145263671875	1053.088012695312	-32.33078384399403	-1743.635131835938	1011.105895996094	-16.32559776306142	-1769.380737304688	1005.380432128906	64.45661163330089	-1643.95166015625	893.2296142578124	8.202199935913187	-1683.6005859375	860.5261840820311	53.48954010009776	-1625.944091796875	831.7562866210936	56.1607666015626	-1601.509521484375	855.9172973632811	14.32774066925059	-1757.732299804688	997.3063964843749	-321.897979736328	-1762.188232421875	992.9458618164061	-87.44011688232411	-1867.225708007812	1016.595458984375	-41.14834976196278	-1869.885131835938	1038.696533203125	-42.30898666381825	-1971.547729492188	1032.048095703125	-160.4081420898436	-1970.092529296875	1026.9287109375	-214.177276611328	-1962.554565429688	1029.403198242187	-263.2250976562499	-1840.206787109375	1049.664672851562	-377.4902954101561	-1828.6650390625	1000.420532226562	-381.7872314453124	-1838.049194335938	960.3444824218749	-402.1442565917968	-1667.027587890625	701.4669799804686	-388.5827026367186	-1729.131225585938	664.7067871093749	-385.1131591796874	-1679.642333984375	581.7084960937499	-367.3121032714843	-1622.915649414062	620.2744140624999	-363.0787658691405	-1581.11669921875	617.5637207031249	-299.7659301757811	-1650.487915039062	667.8475952148436	-232.0360107421874	-1765.844482421875	599.8626708984374	-311.9710693359374	-1615.0146484375	538.9247436523436	-351.346710205078	-1613.661376953125	535.3109130859374	-241.2812042236327	-1677.467895507812	395.8261413574218	-364.6749877929686	-1736.477783203125	433.2118530273436	-364.0957946777343	-1775.002685546875	364.7270202636718	-352.474639892578	-1710.161865234375	331.1733093261718	-360.5000610351561	-1681.616577148438	356.7933349609374	-248.8216552734374	-1808.9072265625	158.7757263183593	-327.3678283691405	-1776.56982421875	155.6755523681639	-244.3035888671874	-1868.5107421875	150.5232696533202	-274.0991210937499	-1773.733154296875	97.05218505859364	-339.2394104003905	-1715.703002929688	65.66304016113271	-354.9525451660155	-1665.215698242188	70.13682556152334	-303.015899658203	-1629.216430664062	55.89220809936513	-329.5656127929686	-1691.442260742188	70.70744323730459	-262.0778503417968	-1766.677978515625	81.93644714355457	-251.0379180908202	-1731.934692382812	139.3260803222655	-300.7351989746093	-1830.438232421875	970.7803955078124	-27.3184299468993	-1786.443115234375	663.1234130859374	-68.32077789306629	-1859.500732421875	670.7412719726561	-48.25759887695301	-1866.12255859375	575.5355834960936	-75.06673431396473	-1803.566040039062	567.9063720703124	-95.86413574218739	-1789.29248046875	541.1430053710936	-170.1284027099608	-1788.197143554688	640.2993164062499	-210.1581268310546	-1932.728393554688	642.8707885742186	-135.2724304199218	-1842.85986328125	493.7338562011718	-121.1314544677733	-1846.826171875	492.8265380859374	-216.8103179931639	-1848.458129882812	368.610382080078	-113.8330307006835	-1923.277954101562	383.0419616699218	-97.60076904296864	-1947.514282226562	307.8151855468749	-101.5372772216796	-1866.7431640625	294.603790283203	-119.017478942871	-1869.333618164062	338.7079772949218	-219.281768798828	-1932.3525390625	85.88423919677723	-150.309356689453	-1937.0078125	96.75681304931629	-238.6926269531249	-1991.956420898438	60.44233322143543	-186.3422698974608	-1865.175415039062	53.37372970581043	-150.0841827392577	-1809.736206054688	36.80752944946278	-139.8447875976561	-1787.528076171875	51.72755050659169	-215.6407318115233	-1725.644775390625	49.38781738281239	-216.2450408935546	-1792.417724609375	26.03625869750966	-253.2432861328124	-1874.927734375	50.37296295166004	-245.1173400878905	-1888.914794921875	91.8521270751952	-205.0958557128905	-1848.3623046875	1573.525512695312	-299.2630615234374	-1826.937255859375	1588.002075195312	-141.3544921874999	-1785.999389648438	1589.849609375	-223.9547119140624	
3	0.008	-1838.2451171875	1683.892944335938	-222.7352142333983	-1788.161987304688	1582.768188476562	-306.938995361328	-1774.864990234375	1596.181396484375	-141.2136077880858	-1870.517822265625	1579.571655273437	-141.8358306884764	-1899.790893554688	1563.093872070312	-291.5487060546874	-1845.227294921875	1404.646484375	-374.0218505859374	-1846.165771484375	1392.396606445312	-57.46110916137684	-1793.971069335938	1357.108032226562	-218.2453765869139	-1734.317993164062	1140.793701171875	-215.8048248291014	-1703.183715820312	1002.853820800781	-206.163360595703	-1909.465576171875	1434.4970703125	-213.7712402343749	-1967.243408203125	1225.756225585937	-221.0152893066405	-1954.425048828125	1130.72998046875	-213.8642272949218	-1805.386474609375	1347.952758789062	-368.8051147460936	-1918.776489257812	1377.240234375	-374.4685668945311	-1841.506103515625	1194.544311523438	-423.8880310058593	-1935.615356445312	1213.112548828125	-396.071319580078	-1895.763061523438	1088.26708984375	-478.4078369140624	-1926.330444335938	1068.291015625	-383.2711486816405	-1899.967895507812	968.0648193359374	-422.1217041015624	-1919.194580078125	990.8620605468749	-499.1461486816405	-1889.737060546875	838.9075927734374	-475.9263916015624	-1938.31201171875	858.1550903320311	-523.0855712890624	-1930.400756835938	796.0270385742186	-532.6740112304686	-1893.205444335938	789.0896606445311	-478.2929382324218	-1793.9326171875	1342.949462890625	-74.4439239501952	-1918.118408203125	1353.429809570312	-53.97478866577136	-1778.386596679688	1202.391845703125	-18.95339965820301	-1879.251831054688	1179.095947265625	-4.515795707702521	-1774.882934570312	1080.586791992188	54.18439865112315	-1815.02734375	1052.805419921875	-32.24384689331043	-1738.084106445312	1011.781066894531	-16.6671028137206	-1763.167114257812	1005.41845703125	63.96581268310558	-1637.481201171875	894.8281860351561	7.121202945709329	-1676.238159179688	861.3799438476561	52.27827072143565	-1618.234008789062	833.3496093749999	54.40521621704112	-1594.283203125	858.0043334960936	12.7989444732667	-1753.528198242188	996.8442993164061	-321.594268798828	-1758.230712890625	992.4138793945311	-87.48570251464832	-1863.973266601562	1016.51513671875	-41.44727325439442	-1866.287841796875	1038.221313476562	-42.50327682495106	-1967.667724609375	1031.647338867187	-160.8865966796874	-1966.088256835938	1026.490600585937	-214.7453460693358	-1958.378784179688	1029.031860351562	-263.7723999023436	-1835.536865234375	1049.531616210938	-377.7287597656249	-1823.852294921875	1000.060119628906	-381.8588256835936	-1833.372192382812	960.2533569335936	-402.3184814453124	-1666.657348632812	701.1964111328124	-387.907989501953	-1724.416625976562	664.5317382812499	-384.8571472167968	-1674.883178710938	581.5004882812499	-366.6564941406249	-1618.314575195312	620.1869506835936	-362.6817932128905	-1576.453491210938	617.6112060546874	-299.2901916503905	-1646.12548828125	667.8416748046874	-231.8813934326171	-1763.327880859375	602.5911254882811	-312.3603515624999	-1610.242919921875	539.1690063476561	-350.4430236816405	-1609.214111328125	536.2619628906249	-240.8163299560546	-1669.167358398438	395.5846252441405	-364.371612548828	-1729.582153320312	431.1424255371093	-363.5890197753905	-1766.335815429688	361.9016113281249	-352.6223144531249	-1700.653686523438	329.9132690429686	-360.5660705566405	-1673.177124023438	355.9812011718749	-248.6912384033202	-1795.05859375	154.5824127197264	-327.904815673828	-1763.151245117188	152.0652008056639	-244.6293334960936	-1857.587768554688	146.3323669433593	-274.170928955078	-1758.0029296875	93.79712677001942	-339.5790100097655	-1699.217651367188	64.09842681884756	-355.3182983398436	-1649.20654296875	70.77629089355459	-303.1067504882811	-1612.383544921875	56.76697158813467	-329.6537780761718	-1670.699829101562	71.27495574951162	-262.0415039062499	-1745.537963867188	81.95339202880848	-249.9506835937499	-1711.205078125	139.1547546386718	-300.4049377441405	-1826.9345703125	970.4000244140624	-27.28232765197743	-1784.505249023438	662.5653686523436	-68.35747528076161	-1852.33154296875	670.2162475585936	-47.60044479370106	-1864.3505859375	575.5021972656249	-75.22828674316395	-1801.5576171875	567.6685180664061	-96.02310943603504	-1787.511962890625	540.7373657226561	-170.1851043701171	-1785.806884765625	639.8045654296874	-210.1720581054686	-1930.09814453125	643.2346801757811	-135.6566772460936	-1841.568481445312	493.5821838378905	-121.1374588012694	-1845.886474609375	492.8093261718749	-216.900665283203	-1847.692504882812	368.610382080078	-113.9706573486327	-1922.575805664062	383.2282104492186	-97.78533935546864	-1947.021240234375	307.9899291992186	-101.5967712402343	-1866.045654296875	294.6045837402343	-119.0978393554686	-1868.675048828125	338.6691284179686	-219.3447265624999	-1932.436401367188	86.04859924316395	-150.3349456787108	-1936.368774414062	95.77074432373036	-238.8571624755858	-1991.972290039062	60.60139083862293	-186.4149169921874	-1865.187133789062	53.44967651367176	-150.1369171142577	-1809.701904296875	36.80318450927723	-139.7608642578124	-1789.274047851562	52.22357940673817	-215.9996795654296	-1726.531005859375	48.39580154418935	-216.782745361328	-1792.377807617188	26.09759902954091	-253.2489624023436	-1874.91650390625	50.36544799804676	-245.1288452148436	-1889.549194335938	91.5171661376952	-205.2933044433593	-1843.976440429688	1572.931030273438	-299.2438659667968	-1822.69140625	1587.87646484375	-141.5247192382811	-1781.513427734375	1589.474731445312	-224.0763092041014	
4	0.012	-1833.618896484375	1683.21240234375	-223.055938720703	-1784.047485351562	1582.220092773438	-307.3948669433593	-1769.831787109375	1595.841552734375	-141.6380462646483	-1866.053833007812	1579.324951171875	-142.0074615478514	-1895.577026367188	1562.519775390625	-291.586456298828	-1840.912963867188	1404.245849609375	-373.9799499511718	-1842.148681640625	1392.0126953125	-57.35525894165028	-1789.423583984375	1356.720825195312	-218.0964965820311	-1730.432739257812	1140.546264648438	-215.3582458496093	-1699.58544921875	1002.28076171875	-205.8312988281249	-1900.260498046875	1433.157836914062	-214.725616455078	-1962.944702148438	1225.453491210937	-221.2285766601561	-1950.335693359375	1130.336181640625	-214.1505889892577	-1801.281005859375	1347.49755859375	-368.6397399902343	-1913.161987304688	1375.536376953125	-372.9113159179686	-1838.04296875	1194.1708984375	-423.8372497558593	-1931.8408203125	1213.228271484375	-395.8934631347655	-1894.5380859375	1088.020141601562	-478.1475524902343	-1923.164916992188	1068.192260742187	-383.3282470703124	-1897.441650390625	968.1422119140624	-422.1336059570311	-1916.223876953125	990.6636352539061	-499.179718017578	-1887.383178710938	838.9259643554686	-476.0181884765624	-1935.964965820312	858.1831054687499	-523.0187377929686	-1927.598510742188	795.7540283203124	-532.6132812499999	-1890.307373046875	788.9437866210936	-478.500762939453	-1790.203247070312	1342.48779296875	-74.26491546630848	-1914.082641601562	1353.082641601562	-53.89252471923817	-1774.17578125	1202.151611328125	-18.88194465637196	-1874.673950195312	1178.640258789062	-4.096514701843147	-1769.552856445312	1080.474853515625	53.96593093872081	-1809.943603515625	1052.394653320312	-32.15458297729481	-1732.454711914062	1012.33642578125	-17.10999107360829	-1756.533447265625	1005.422668457031	63.68067932128917	-1630.475830078125	896.4782104492186	5.782282829284767	-1668.910522460938	862.3616943359374	50.94686508178721	-1610.544677734375	834.7949829101561	52.75104522705088	-1587.023193359375	859.9418334960936	11.13201236724863	-1749.063232421875	996.9995727539061	-321.5634460449218	-1754.429321289062	991.7980346679686	-87.2567901611327	-1860.808837890625	1016.499267578125	-41.76674270629871	-1862.61767578125	1037.728759765625	-42.76639938354481	-1963.790649414062	1031.310668945312	-161.4550628662108	-1962.079467773438	1026.041870117187	-215.2254486083983	-1954.24267578125	1028.6064453125	-264.1878662109374	-1831.028564453125	1049.380249023438	-377.9289550781249	-1819.398681640625	999.8160400390624	-381.9374084472655	-1828.8095703125	960.0686645507811	-402.5194091796874	-1662.13427734375	700.9141235351561	-387.491973876953	-1719.914794921875	664.2100830078124	-384.6249084472655	-1670.328857421875	581.1627807617186	-366.2408752441405	-1612.087646484375	619.6156616210936	-362.1470642089843	-1572.2021484375	617.5593261718749	-298.3794860839843	-1642.395141601562	667.5223388671874	-231.5304260253905	-1756.782470703125	599.1721801757811	-311.2223510742186	-1605.437255859375	539.3375244140624	-349.618194580078	-1604.537109375	536.4506225585936	-240.2674865722655	-1661.322387695312	395.4432373046874	-364.0348205566405	-1722.538330078125	428.8461914062499	-363.6747741699218	-1757.765747070312	359.027374267578	-352.7705993652343	-1691.300903320312	328.6849975585936	-360.5489501953124	-1664.807495117188	355.5084533691405	-249.0442504882811	-1778.272094726562	148.5794372558593	-328.5855712890624	-1749.402099609375	148.4706726074218	-245.1653900146483	-1840.1025390625	138.3881378173827	-275.708038330078	-1742.52685546875	90.87023925781239	-340.0124511718749	-1682.691528320312	62.45594024658192	-355.5717773437499	-1632.471435546875	69.15341949462881	-303.2205200195311	-1595.552124023438	57.40219879150381	-329.8785705566405	-1655.6298828125	69.42485809326162	-262.6281738281249	-1732.810668945312	78.30054473876943	-251.3092193603514	-1697.271850585938	136.9685668945311	-300.6986999511718	-1823.398681640625	969.8687744140624	-27.38804435729969	-1780.501342773438	661.9302368164061	-67.9870147705077	-1850.11181640625	670.1256713867186	-47.72021865844715	-1862.701049804688	575.5241699218749	-75.43173980712879	-1800.221557617188	567.2812499999999	-96.00184631347645	-1786.0087890625	540.7418212890624	-170.2436065673827	-1783.162475585938	639.2899780273436	-210.2350311279296	-1927.947021484375	643.7728881835936	-136.0124053955077	-1840.107177734375	493.4013061523436	-121.2975006103514	-1844.491455078125	492.8687133789061	-216.6921081542968	-1851.495483398438	367.2614440917968	-114.3444213867186	-1928.368896484375	382.1001892089843	-97.67290496826161	-1946.035034179688	308.3029479980468	-101.7529373168944	-1865.369140625	294.5741882324218	-119.4298934936522	-1867.944458007812	338.6322021484374	-219.4407348632811	-1932.34912109375	86.02582550048817	-150.4478607177733	-1936.273193359375	95.77851104736317	-238.9341888427733	-1991.9951171875	60.72492218017566	-186.4995269775389	-1865.111083984375	53.40829467773426	-150.1089630126952	-1809.68359375	36.8210105895995	-139.760284423828	-1789.781372070312	50.72924423217763	-215.8567810058593	-1726.4931640625	48.33073806762685	-216.7420043945311	-1792.345703125	26.08428001403798	-253.2137908935546	-1874.876708984375	50.34101486206043	-245.1027832031249	-1891.068237304688	90.7561798095702	-205.6655120849608	-1839.812255859375	1572.369873046875	-299.4906616210936	-1817.942749023438	1587.583251953125	-141.8227539062499	-1776.939575195312	1589.03076171875	-224.5164642333983	
